<?xml version="1.0" encoding="UTF-8"?>
<svg id="Layer_1" data-name="Layer 1" xmlns="http://www.w3.org/2000/svg" viewBox="0 0 59.45 54">
  <defs>
    <style>
      .cls-1 {
        fill: none;
      }

      .cls-1, .cls-2 {
        stroke-width: 0px;
      }

      .cls-2 {
        fill: #1d1d1f;
      }
    </style>
  </defs>
  <rect class="cls-1" y="2.21" width="19" height="41.84"/>
  <path class="cls-2" d="m16,3.07H3c-1.65,0-3,1.35-3,3v34c0,1.65,1.35,3,3,3h13c1.65,0,3-1.35,3-3V6.07c0-1.65-1.35-3-3-3Zm-8.75,2.25h4.5c.14,0,.25.11.25.25s-.11.25-.25.25h-4.5c-.14,0-.25-.11-.25-.25s.11-.25.25-.25Zm-1.75-.12c.21,0,.38.17.38.38s-.17.38-.38.38-.38-.17-.38-.38.17-.38.38-.38Zm4,37.12c-.97,0-1.75-.78-1.75-1.75s.78-1.75,1.75-1.75,1.75.78,1.75,1.75-.78,1.75-1.75,1.75h0Zm8.5-4.25H1V8.07h17v30Z"/>
  <circle class="cls-2" cx="9.5" cy="40.57" r="1.12"/>
  <path class="cls-1" d="m21.45,0h38v54H21.45V0Z"/>
</svg>